3.0Hz3min_grf.mot
version=1
nRows=27
nColumns 19
inDegrees=yes
endheader
time	1_ground_force_vx	1_ground_force_vy	1_ground_force_vz	1_ground_force_px	1_ground_force_py	1_ground_force_pz	1_ground_torque_x	1_ground_torque_y	1_ground_torque_z	2_ground_force_vx	2_ground_force_vy	2_ground_force_vz	2_ground_force_px	2_ground_force_py	2_ground_force_pz	2_ground_torque_x	2_ground_torque_y	2_ground_torque_z
            2.502500	           23.904911	          919.847605	          -67.881805	           -0.131251	            0.006228	           -0.402165	           -0.034811	           -1.339507	            0.098851	           -1.410579	          840.394498	           72.640102	           -0.104831	            0.006100	           -0.696198	           -0.002515	            1.498451	            0.129520
            2.503000	           23.857449	          923.094086	          -68.280493	           -0.130958	            0.006228	           -0.402114	           -0.033833	           -1.309085	            0.096832	           -1.283054	          844.075765	           73.263257	           -0.104905	            0.006100	           -0.696264	           -0.002057	            1.353356	            0.117467
            2.503500	           24.223469	          927.060063	          -68.264398	           -0.131087	            0.006228	           -0.402213	           -0.031766	           -1.215723	            0.089520	           -1.529931	          847.573776	           73.275840	           -0.104640	            0.006100	           -0.696124	           -0.001818	            1.007034	            0.087062
            2.504000	           24.130082	          931.387994	          -68.612467	           -0.131257	            0.006228	           -0.402055	           -0.035712	           -1.378452	            0.101546	           -1.538386	          849.966159	           73.706727	           -0.104653	            0.006099	           -0.695937	           -0.001559	            0.861281	            0.074688
            2.504500	           24.127815	          934.455490	          -69.287153	           -0.131180	            0.006227	           -0.401970	           -0.038562	           -1.493465	            0.110736	           -1.271950	          854.018727	           73.627207	           -0.104592	            0.006100	           -0.696041	           -0.001228	            0.824524	            0.071084
            2.505000	           23.852120	          936.078327	          -69.417086	           -0.130984	            0.006229	           -0.402282	           -0.036555	           -1.434584	            0.106385	           -1.334230	          858.255148	           73.313850	           -0.104853	            0.006100	           -0.696173	           -0.001375	            0.884317	            0.075540
            2.505500	           23.577494	          939.321347	          -68.989790	           -0.131083	            0.006228	           -0.402252	           -0.034174	           -1.361484	            0.099996	           -1.489442	          862.306315	           73.234509	           -0.104994	            0.006099	           -0.696208	           -0.001964	            1.137015	            0.096565
            2.506000	           23.347509	          942.926813	          -69.019614	           -0.131151	            0.006228	           -0.402125	           -0.029575	           -1.194442	            0.087430	           -1.783190	          865.804201	           73.200177	           -0.105075	            0.006098	           -0.696005	           -0.002397	            1.163758	            0.098391
            2.506500	           23.209500	          946.171311	          -68.959508	           -0.131222	            0.006227	           -0.401994	           -0.027133	           -1.106137	            0.080618	           -1.698007	          868.197548	           73.490248	           -0.104957	            0.006099	           -0.695996	           -0.002004	            1.024851	            0.086751
            2.507000	           23.666055	          948.337143	          -69.547493	           -0.131082	            0.006228	           -0.402163	           -0.028756	           -1.152283	            0.084504	           -1.660544	          870.776478	           73.311714	           -0.104827	            0.006099	           -0.695994	           -0.001337	            0.701223	            0.059037
            2.507500	           23.711391	          950.500537	          -69.584183	           -0.130984	            0.006229	           -0.402288	           -0.030877	           -1.237725	            0.090611	           -1.671055	          873.721847	           73.603796	           -0.104854	            0.006098	           -0.695857	           -0.001044	            0.545985	            0.045995
            2.508000	           23.756723	          952.663930	          -69.620889	           -0.131002	            0.006228	           -0.402253	           -0.032186	           -1.290703	            0.094325	           -1.586200	          876.117749	           73.143016	           -0.104787	            0.006099	           -0.695826	           -0.000865	            0.477971	            0.039904
            2.508500	           23.481417	          954.646695	          -69.565836	           -0.131062	            0.006228	           -0.402238	           -0.029570	           -1.202167	            0.087603	           -1.317811	          879.618290	           72.967669	           -0.104964	            0.006098	           -0.695926	           -0.000944	            0.629893	            0.052252
            2.509000	           23.068144	          957.170667	          -69.645710	           -0.130993	            0.006228	           -0.402226	           -0.027893	           -1.157376	            0.084213	           -1.746271	          881.459513	           72.598994	           -0.105009	            0.006098	           -0.695851	           -0.001580	            0.797612	            0.065693
            2.509500	           22.839035	          959.693420	          -69.405044	           -0.131042	            0.006229	           -0.402274	           -0.023272	           -0.977900	            0.070722	           -1.521367	          884.038786	           72.514237	           -0.104932	            0.006098	           -0.695807	           -0.001371	            0.796461	            0.065331
            2.510000	           23.160229	          960.593932	          -69.218552	           -0.130924	            0.006229	           -0.402362	           -0.022369	           -0.927787	            0.066855	           -1.812498	          886.800566	           72.383436	           -0.104944	            0.006098	           -0.695898	           -0.001090	            0.533111	            0.043514
            2.510500	           23.159541	          963.118106	          -69.299435	           -0.130905	            0.006229	           -0.402372	           -0.023898	           -0.993828	            0.071509	           -1.817712	          888.272855	           72.623325	           -0.104774	            0.006098	           -0.695683	           -0.000615	            0.300431	            0.024563
            2.511000	           23.067382	          963.839741	          -69.433687	           -0.130916	            0.006229	           -0.402485	           -0.026134	           -1.091977	            0.078664	           -1.825146	          890.299468	           72.348984	           -0.104690	            0.006098	           -0.695639	           -0.000283	            0.138009	            0.011215
            2.511500	           23.250050	          965.823258	          -69.563211	           -0.130986	            0.006230	           -0.402520	           -0.027612	           -1.147018	            0.082614	           -1.877998	          891.956793	           72.307997	           -0.104663	            0.006098	           -0.695453	           -0.000554	            0.262959	            0.021317
            2.512000	           23.204200	          968.346243	          -69.368852	           -0.131035	            0.006229	           -0.402281	           -0.025694	           -1.072267	            0.076813	           -1.884185	          893.615794	           71.844629	           -0.104782	            0.006098	           -0.695667	           -0.000790	            0.374736	            0.030128
            2.512500	           23.387880	          968.525863	          -69.230963	           -0.130829	            0.006230	           -0.402590	           -0.018838	           -0.780114	            0.055763	           -2.078437	          895.458321	           71.381999	           -0.104803	            0.006097	           -0.695531	           -0.001182	            0.509340	            0.040602
            2.513000	           23.158842	          970.688023	          -68.991843	           -0.130907	            0.006229	           -0.402366	           -0.016861	           -0.706731	            0.050231	           -2.461396	          897.668284	           70.967682	           -0.104923	            0.006097	           -0.695537	           -0.001265	            0.461358	            0.036474
            2.513500	           23.114181	          972.307880	          -68.388634	           -0.130920	            0.006229	           -0.402363	           -0.015267	           -0.642231	            0.045172	           -2.326184	          899.142084	           70.925958	           -0.104875	            0.006097	           -0.695513	           -0.000378	            0.146273	            0.011538
            2.514000	           22.930776	          972.488141	          -68.387406	           -0.130884	            0.006229	           -0.402398	           -0.019528	           -0.828190	            0.058240	           -2.468789	          899.694562	           70.787197	           -0.104660	            0.006097	           -0.695285	            0.000281	           -0.102494	           -0.008064
            2.514500	           23.113902	          973.209436	          -68.430636	           -0.130896	            0.006230	           -0.402562	           -0.020346	           -0.856660	            0.060236	           -2.755288	          901.167342	           70.604861	           -0.104609	            0.006098	           -0.695366	            0.000604	           -0.197512	           -0.015475
            2.515000	           23.022279	          974.110384	          -68.334824	           -0.130879	            0.006229	           -0.402422	           -0.020449	           -0.865227	            0.060697	           -2.811004	          903.563026	           70.097221	           -0.104850	            0.006097	           -0.695482	            0.000379	           -0.121708	           -0.009442
            2.515500	           23.343066	          975.372078	          -68.284358	           -0.130811	            0.006230	           -0.402495	           -0.016444	           -0.687083	            0.048102	           -2.902272	          902.827966	           69.578416	           -0.104571	            0.006097	           -0.695203	           -0.000136	            0.042321	            0.003262
